<svg xmlns="http://www.w3.org/2000/svg" viewBox="-5 -10 110 135" width="55" height="67.5">
 <path d="m38.855 48.301c0.73047-0.4375 0.97656-1.375 0.55469-2.1133-0.41797-0.74219-1.3555-1.0078-2.1016-0.60156-2.2812 1.4844-5.582 1.25-8.1758 1.2383-1.4023 0.003906-2.793-0.30859-4.0586-0.91406-0.77734-0.37109-1.707-0.039062-2.0781 0.73828-0.37109 0.77344-0.046875 1.707 0.73047 2.0781 2.5859 1.4023 6.0625 1.25 8.9336 1.2227 2.1719-0.003907 4.3086-0.57031 6.1953-1.6484z"/>
 <path d="m93.73 56.93c0.40234-3.8438-5.7656-8.4141-10.414-8.0391-5.3516 0.082031-10.652-1.0156-15.527-3.2188l-22.148-14.414c-1.0703-0.69141-2.3789-0.91797-3.625-0.62891-1.2422 0.28906-2.3164 1.0742-2.9727 2.168l-3.6875 6.2266v0.003906c-0.56641 0.94922-1.5898 1.5312-2.6953 1.5352-1.6602-0.10938-4.8477 0.52734-5.9648-1.168l-4.5977-5.707c-1.0352-1.2812-2.8828-1.5469-4.2305-0.60156-5.2344 3.8008-8.5859 9.6562-9.2148 16.09v9.8164c-1.543 1.6094-2.4023 3.75-2.4023 5.9766v1.3945c0 1.7266 1.4023 3.125 3.1289 3.125h62.098c8.4414 0.24609 21.668-4.0117 22.254-12.559zm-38.152-11.734 0.97266-3.1094 2.7578 1.793-0.98047 3.1055zm-1.75-4.8828-0.97266 3.1094-2.7578-1.793 0.98047-3.1055zm-42.051 8.957c0.58594-5.4531 3.4492-10.398 7.8867-13.621l4.5977 5.707c1.1836 1.4766 2.9766 2.3359 4.8711 2.332h3.5273c2.207-0.003906 4.2539-1.1719 5.3828-3.0703l3.6875-6.2266c0.21875-0.36719 0.57812-0.62891 0.99609-0.72656 0.41406-0.097656 0.85156-0.019531 1.2109 0.21094l4.4219 2.8789-0.98047 3.1055-2.4141-1.5703c-0.35938-0.23047-0.79297-0.30859-1.207-0.21094-0.41406 0.097656-0.76953 0.35938-0.98828 0.72266l-2.0234 3.4141c-0.42188 0.74219-0.17188 1.6836 0.5625 2.1172 0.73047 0.43359 1.6758 0.19922 2.125-0.52344l1.1914-2.0156 2.4609 1.6016 0.003906 0.003907c0.17969 0.19531 0.40625 0.33984 0.65625 0.42578l15.262 9.9336c0.72266 0.47266 1.6914 0.26563 2.1641-0.45703 0.46875-0.72266 0.26562-1.6914-0.45703-2.1602l-3.6719-2.3906 0.98047-3.1055 4.1289 2.6875c6.0117 3.1719 13.395 3.6719 17.152 3.6797l0.003906 0.003906c2.1914-0.03125 4.3086 0.80078 5.8945 2.3203 0.46875 0.44531 0.86328 0.96484 1.168 1.5352l-2.7344 1.1406c-8.0625 3.8594-19.551 3.043-28.281 3.0781-1.2461 0-2.4922-0.046875-3.7344-0.11719l0.71875-0.97656h-0.003906c0.51172-0.69531 0.36328-1.6719-0.33203-2.1836-0.69531-0.51172-1.6758-0.35938-2.1836 0.33594l-1.8516 2.5117c-1.5547-0.17578-3.1055-0.39062-4.6445-0.67578l1.8242-2.4766c0.49219-0.69531 0.33594-1.6523-0.35156-2.1562-0.68359-0.50391-1.6445-0.36719-2.1641 0.30469l-2.7773 3.7734c-1.5391-0.21484-3.0898-0.33594-4.6445-0.36328l2.832-3.8438c0.48828-0.69531 0.33594-1.6523-0.35156-2.1602-0.68359-0.50391-1.6484-0.36719-2.168 0.30859l-4.1836 5.6758h-23.562zm71.086 15.012c-3.6289 1.4141-7.4922 2.1211-11.387 2.0859l-62.102-0.003907c-0.26562-1.8672 0.28516-3.7617 1.5117-5.1914h27.906c4.6914-0.074219 9.2344 1.3633 13.891 1.7188 4.4805 0.53125 14.926 0.26953 19.555 0.32812v-0.003906c5.6992 0.007812 11.344-1.1211 16.602-3.3203l0.67969-0.28516v0.003906c-1.7383 2.1484-4.043 3.7656-6.6562 4.668z"/>
<text x="0.0" y="117.5" font-size="2.5" font-weight="bold" font-family="Arbeit Regular, Helvetica, Arial-Unicode, Arial, Sans-serif" fill="#000000"></text><text x="0.0" y="122.5" font-size="2.5" font-weight="bold" font-family="Arbeit Regular, Helvetica, Arial-Unicode, Arial, Sans-serif" fill="#000000">from Noun Project</text></svg>
