<svg xmlns="http://www.w3.org/2000/svg" viewBox="0 0 90.31 71.1875" width="45" height="35.59">
  <path d="M84.69 14.58a33.07 33.07 0 00-24.6-13.31 1.41 1.41 0 00-.29 0 27.42 27.42 0 00-6.64-1.2c-8.91-.54-21.23 1.38-27.07 8.92-4.6 5.93-7.59 14.46-8.45 21.87a1.13 1.13 0 000 .26 28.62 28.62 0 01-8.4 4.84 21.47 21.47 0 00-5.85 2.7 8.29 8.29 0 00-3.25 8.34 1.18 1.18 0 00.94 1l.11 0c6.94 2.15 11.14-1.72 16.78-5.29a1.65 1.65 0 00.39-.35 29.08 29.08 0 017.46 2.76c5.13 2.75 9.15 7.18 14.35 9.84 10.87 5.56 20.36-2.1 29.57-7.53a1.34 1.34 0 00.32-.24c5.35 1.68 10.89 2.86 16.34 4.28a1.42 1.42 0 001.07-.12 1.6 1.6 0 001.57-1.42c1.35-11.85 3.32-25.11-4.35-35.35zm-1.15 3.58c5.53 8.64 3.85 20.38 2.69 30.23-5.27-1.36-10.57-2.65-15.8-4.14a33.35 33.35 0 01-4.41-1.61c2-9.06 6-19.63 4.6-28.95a14.91 14.91 0 00-3.84-8.23 30.34 30.34 0 0116.76 12.7zm-56.59-5c4.78-8.04 15.61-10.34 24.41-10.14 4.64.08 9.49.68 12.89 4.09 4 4 4 9.81 3.2 15.08-1 6.41-2.75 12.79-4.19 19.11-3.07-1.6-6-3.44-9.14-5.18-9.41-5.16-22.39-7.8-33-6.51l-.25.05a47.25 47.25 0 016.08-16.5zm-22.6 32.44a13 13 0 019.49-3.69c-3.03 2.09-5.86 3.96-9.49 3.69zm41.32 8.31c-6.63-1.5-11.37-7.13-17-10.55-7.27-4.43-17.25-6.4-24.23-1.7 2-2 5.69-2.76 8-3.78a30.53 30.53 0 007.62-4.93 1.53 1.53 0 00.33-.41 1.42 1.42 0 00.63 0c12.32-1.49 25.68 2.33 36 8.88a49.53 49.53 0 009.33 4.52c-5.94 3.86-13.52 9.57-20.62 7.97z"/>
</svg>
