<svg width="19" height="19" viewBox="0 0 19 19" fill="none" xmlns="http://www.w3.org/2000/svg">
<path d="M8.70837 3.16668H3.16671C2.74678 3.16668 2.34405 3.3335 2.04712 3.63043C1.75019 3.92736 1.58337 4.33009 1.58337 4.75002V15.8333C1.58337 16.2533 1.75019 16.656 2.04712 16.9529C2.34405 17.2499 2.74678 17.4167 3.16671 17.4167H14.25C14.67 17.4167 15.0727 17.2499 15.3696 16.9529C15.6666 16.656 15.8334 16.2533 15.8334 15.8333V10.2917M14.6459 1.97918C14.9608 1.66424 15.388 1.4873 15.8334 1.4873C16.2788 1.4873 16.7059 1.66424 17.0209 1.97918C17.3358 2.29413 17.5128 2.72128 17.5128 3.16668C17.5128 3.61208 17.3358 4.03924 17.0209 4.35418L9.50004 11.875L6.33337 12.6667L7.12504 9.50002L14.6459 1.97918Z" stroke="#007AFF" stroke-width="2" stroke-linecap="round" stroke-linejoin="round"/>
</svg>
