<svg xmlns="http://www.w3.org/2000/svg" viewBox="-5 -10 110 135">
  <path d="M34.89 7.52c-0.01 0-0.02 0-0.04 0.01-0.02 0-0.05 0-0.08 0.01-0.05 0.01-0.09 0.02-0.13 0.04-0.02 0-0.03 0.01-0.04 0.01l-19.06 8.95c-0.17 0.08-0.3 0.21-0.38 0.38l-15.09 32.09c-0.18 0.38-0.03 0.82 0.34 1.02l17.83 9.38v0c0 0 0.01 0 0.01 0c0.09 0.04 0.18 0.07 0.27 0.08h0.02c0.09 0.01 0.19 0 0.28-0.03c0.01 0 0.02 0 0.02-0.01c0.09-0.03 0.18-0.07 0.25-0.13c0 0 0.01-0.01 0.01-0.01c0.06-0.05 0.12-0.11 0.16-0.18l5.79-9.13v41.69c0 0.09 0.02 0.18 0.05 0.27c0.01 0.03 0.03 0.06 0.04 0.09c0.03 0.06 0.06 0.11 0.11 0.16c0.02 0.02 0.04 0.05 0.07 0.07c0.05 0.04 0.11 0.08 0.16 0.11c0.02 0.02 0.05 0.03 0.07 0.04c0.09 0.04 0.18 0.05 0.27 0.05h50.33c0.07 0 0.14-0.01 0.2-0.03c0 0 0.01 0 0.01 0c0.03-0.01 0.06-0.02 0.09-0.03c0 0 0 0 0.01 0c0.02-0.01 0.05-0.02 0.07-0.04c0.02-0.01 0.04-0.03 0.07-0.04c0 0 0.01 0 0.01-0.01c0.01-0.01 0.02-0.02 0.04-0.03c0.01-0.01 0.03-0.02 0.04-0.04l0.04-0.04c0.01-0.01 0.02-0.02 0.03-0.04c0.01-0.01 0.02-0.02 0.03-0.04c0.01-0.02 0.02-0.03 0.03-0.05c0.01-0.01 0.02-0.02 0.02-0.03c0.02-0.03 0.03-0.05 0.04-0.08l0-0c0.01-0.02 0.01-0.04 0.02-0.05c0-0.02 0.01-0.04 0.02-0.05v0c0.01-0.03 0.01-0.06 0.02-0.09s0.01-0.06 0.01-0.09v-41.56l5.25 8.77c0.01 0.02 0.02 0.03 0.03 0.04c0 0.01 0.01 0.03 0.02 0.04c0.01 0.01 0.02 0.01 0.02 0.02c0.05 0.06 0.11 0.11 0.18 0.16c0.02 0.01 0.03 0.02 0.05 0.03c0.08 0.04 0.16 0.07 0.25 0.08c0.01 0 0.02 0 0.04 0.01c0.09 0.01 0.18 0 0.27-0.02c0 0 0.01 0 0.02 0c0.06-0.02 0.13-0.04 0.18-0.08c0.03-0.02 0.05-0.04 0.08-0.05h0v0c0.02-0.01 0.03-0.02 0.04-0.03l16.31-12.82c0.3-0.23 0.39-0.65 0.21-0.98l-15.09-28.41c-0.08-0.15-0.21-0.27-0.36-0.34l-19.06-8.95c-0.02 0-0.04-0.01-0.05-0.01c-0.06-0.02-0.13-0.04-0.2-0.05c-0.03 0-0.05-0.01-0.08-0.01c-0.09 0-0.17 0.01-0.25 0.04c-0.02 0.01-0.04 0.02-0.06 0.03c-0.04 0.01-0.07 0.03-0.11 0.05-6.33 3.93-11.65 5.21-16.38 4.91-4.73-0.31-8.91-2.23-12.91-4.9l0 0c-0.05-0.04-0.11-0.06-0.16-0.08c0 0 0 0 0 0h0c-0.09-0.03-0.18-0.04-0.27-0.04c-0.01 0-0.02 0-0.03 0zm30.22 1.67l18.45 8.65l14.66 27.6l-15.14 11.9-6.14-10.24v-10.65c0-0.21-0.08-0.41-0.23-0.55c-0.14-0.15-0.34-0.23-0.55-0.23c-0.21 0-0.41 0.08-0.55 0.23c-0.15 0.15-0.23 0.34-0.23 0.55v54.46h-48.76v-43.56-0.08-10.83c0-0.21-0.08-0.41-0.23-0.55c-0.15-0.15-0.34-0.23-0.55-0.23c-0.21 0-0.41 0.08-0.55 0.23c-0.15 0.15-0.23 0.34-0.23 0.55v10.65l-6.73 10.6-16.53-8.7l14.65-31.16l18.41-8.64c4.03 2.63 8.37 4.58 13.31 4.91c4.99 0.33 10.55-1.04 16.94-4.92z"/>
  <text x="0" y="117.5" font-size="5" font-weight="bold" font-family="Arbeit Regular, Helvetica, Arial-Unicode, Arial, Sans-serif" fill="#000000">T-shirt</text>
  <text x="0" y="122.5" font-size="5" font-weight="bold" font-family="Arbeit Regular, Helvetica, Arial-Unicode, Arial, Sans-serif" fill="#000000">from Noun Project</text>
</svg>
